<svg id="Capa_1" enable-background="new 0 0 512 512" height="512" viewBox="0 0 512 512" width="512" xmlns="http://www.w3.org/2000/svg"><g><path d="m505.736 72.155-32.066-63.884c-2.545-5.07-7.733-8.271-13.406-8.271h-406.712c-5.547 0-10.641 3.061-13.244 7.959l-34.294 64.508s-5.927 15.236-5.927 23.77c0 27.903 22.915 50.523 51.183 50.523 28.267 0 51.183-22.62 51.183-50.523 0 27.903 22.915 50.523 51.183 50.523 28.267 0 51.183-22.62 51.183-50.523 0 27.903 22.915 50.523 51.183 50.523s51.183-22.62 51.183-50.523c0 27.903 22.915 50.523 51.183 50.523s51.183-22.62 51.183-50.523c0 27.903 22.915 50.523 51.183 50.523 28.267 0 51.183-22.62 51.183-50.523-.003-8.72-2.241-16.924-6.181-24.082z"/><g><path d="m298.43 241.313c-6.191 17.462-22.873 30.003-42.43 30.003s-36.239-12.54-42.43-30.003l-37.039-.001-50.508 50.513 20.729 20.731 12.959-12.96c4.289-4.29 10.739-5.574 16.347-3.252 5.605 2.322 9.26 7.792 9.26 13.86v112.498h141.365v-112.498c0-6.068 3.655-11.538 9.26-13.86 5.604-2.322 12.056-1.039 16.347 3.252l12.959 12.961 20.729-20.731-50.508-50.513z"/><path d="m498.158 483.156h-16.439v-309.137c-6.699 1.78-13.731 2.744-20.989 2.744-19.385 0-37.208-6.777-51.183-18.064-13.975 11.287-31.798 18.064-51.183 18.064s-37.208-6.777-51.183-18.064c-13.975 11.287-31.798 18.064-51.183 18.064s-37.208-6.777-51.183-18.064c-13.975 11.287-31.798 18.064-51.183 18.064s-37.208-6.777-51.183-18.064c-13.975 11.287-31.798 18.064-51.183 18.064-7.257 0-14.29-.964-20.989-2.744v309.137h-16.435c-7.645 0-13.842 6.197-13.842 13.843 0 8.285 6.716 15.001 15 15.001h482c8.284 0 15-6.716 15-15.001 0-7.646-6.197-13.843-13.842-13.843zm-80.361-180.723-41.943 41.946c-5.218 5.219-13.323 5.788-19.172 1.711v91.613c0 8.285-6.716 15.001-15 15.001h-171.365c-8.284 0-15-6.716-15-15.001v-91.613c-5.85 4.078-13.954 3.508-19.172-1.711l-41.943-41.946c-2.813-2.813-4.394-6.629-4.394-10.607 0-3.979 1.581-7.794 4.394-10.608l65.508-65.514c2.813-2.814 6.628-4.394 10.606-4.394h55.684c8.284 0 15 6.716 15 15.001 0 8.272 6.729 15.001 15 15.001s15-6.73 15-15.001c0-8.285 6.716-15.001 15-15.001h55.682c3.978 0 7.793 1.581 10.606 4.394l65.509 65.515c2.813 2.813 4.393 6.629 4.393 10.607.001 3.979-1.58 7.794-4.393 10.607z"/></g></g></svg>