<svg height="100" viewBox="0 0 64 64" width="100" xmlns="http://www.w3.org/2000/svg"><g fill="#36151E"><rect height="8" rx="1" width="14" x="33" y="45"/><path d="m25 45a2.006 2.006 0 0 1 2 2v14h-10v-14a2.006 2.006 0 0 1 2-2z"/><path d="m35 11a3 3 0 0 1 -6 0h-6v4h3v12h12v-12h3v-4z"/><path d="m52.73 22.27a18.023 18.023 0 0 0 -5.74-3.86 7.773 7.773 0 0 1 -.06.97 14.379 14.379 0 0 1 -1.03 4.25 15 15 0 0 1 -27.8 0 14.379 14.379 0 0 1 -1.03-4.25 7.773 7.773 0 0 1 -.06-.97 17.994 17.994 0 0 0 -11.01 16.59h2a3.992 3.992 0 0 0 3 3.87 3.657 3.657 0 0 0 1 .13 4 4 0 0 0 4-4 4 4 0 0 0 8 0 4 4 0 0 0 8 0 4 4 0 0 0 8 0 4 4 0 0 0 8 0 4 4 0 0 0 4 4 3.657 3.657 0 0 0 1-.13 3.992 3.992 0 0 0 3-3.87h2a17.983 17.983 0 0 0 -5.27-12.73z"/></g><path d="m23 16h2v11a1 1 0 0 0 1 1h12a1 1 0 0 0 1-1v-11h2a1 1 0 0 0 1-1v-4a1 1 0 0 0 -1-1h-18a1 1 0 0 0 -1 1v4a1 1 0 0 0 1 1zm10.722-4a1.983 1.983 0 0 1 -3.444 0zm-9.722 0h4.142a3.981 3.981 0 0 0 7.716 0h4.142v2h-2a1 1 0 0 0 -1 1v11h-10v-11a1 1 0 0 0 -1-1h-2z" fill="#7B6D8D"/><path d="m46 44h-12a2 2 0 0 0 -2 2v6a2 2 0 0 0 2 2h12a2 2 0 0 0 2-2v-6a2 2 0 0 0 -2-2zm-12 8v-6h12v6z" fill="#7B6D8D"/><path d="m53.816 60a2.966 2.966 0 0 0 .184-1v-19.423a4.98 4.98 0 0 0 2.9-3.577h1.1a1 1 0 0 0 1-1 18.89 18.89 0 0 0 -11.011-17.219 15.99 15.99 0 0 0 -31.977-.009 18.937 18.937 0 0 0 -11.012 17.228 1 1 0 0 0 1 1h1.1a4.977 4.977 0 0 0 2.9 3.581v19.419a2.966 2.966 0 0 0 .184 1h-6.184v2h56v-2zm3.156-26h-.972a1 1 0 0 0 -1 1 2.994 2.994 0 0 1 -2.271 2.907 2.634 2.634 0 0 1 -.729.093 3 3 0 0 1 -3-3v-4a14.943 14.943 0 0 0 -2-7.471 15.8 15.8 0 0 0 .875-3.59 16.937 16.937 0 0 1 9.097 14.061zm-33.972-2.782v3.782a3 3 0 0 1 -6 0v-4a12.962 12.962 0 0 1 1.07-5.157 16.092 16.092 0 0 0 4.93 5.375zm2 1.147a15.852 15.852 0 0 0 6 1.584v1.051a3 3 0 0 1 -6 0zm8 1.584a15.852 15.852 0 0 0 6-1.584v2.635a3 3 0 0 1 -6 0zm8-2.731a16.092 16.092 0 0 0 4.93-5.375 12.962 12.962 0 0 1 1.07 5.157v4a3 3 0 0 1 -6 0zm-9-27.218a14 14 0 1 1 -14 14 14.015 14.015 0 0 1 14-14zm-23 31a1 1 0 0 0 -1-1h-.971a16.941 16.941 0 0 1 9.1-14.066 15.851 15.851 0 0 0 .876 3.595 14.943 14.943 0 0 0 -2.005 7.471v4a3 3 0 0 1 -3 3 2.713 2.713 0 0 1 -.754-.1 2.987 2.987 0 0 1 -2.246-2.9zm17 25h-8v-13a1 1 0 0 1 1-1h6a1 1 0 0 1 1 1zm2 0v-13a3 3 0 0 0 -3-3h-6a3 3 0 0 0 -3 3v13h-3a1 1 0 0 1 -1-1v-19a4.982 4.982 0 0 0 4-2.031 4.954 4.954 0 0 0 8 0 4.954 4.954 0 0 0 8 0 4.954 4.954 0 0 0 8 0 4.954 4.954 0 0 0 8 0 4.982 4.982 0 0 0 4 2.031v19a1 1 0 0 1 -1 1z" fill="#7B6D8D"/><path d="m23 51h2v4h-2z" fill="#7B6D8D"/></svg>